<svg width="17" height="20" viewBox="0 0 17 20" fill="none" xmlns="http://www.w3.org/2000/svg">
<path d="M14.072 10.395c.01 2.502 2.16 3.334 2.181 3.345-.021.063-.343 1.187-1.125 2.333-.677.989-1.385 1.979-2.489 1.999-1.083.02-1.437-.646-2.677-.646-1.24 0-1.635.625-2.656.666-1.062.041-1.896-.958-2.583-1.937-1.406-2.042-2.479-5.75-1.021-8.292.719-1.27 2.02-2.073 3.427-2.094 1.073-.02 2.083.719 2.74.719.656 0 1.885-.896 3.166-.77 1.177.051 2.24.479 2.948 1.5-.094.063-1.927 1.125-1.917 3.177H14.072zm-2.469-6.906c.583-.708.969-1.688.854-2.667-.843.031-1.864.563-2.469 1.271-.541.625-.948 1.583-.812 2.542.937.073 1.843-.438 2.427-1.146z" fill="currentColor"/>
</svg>
